<svg width="148" height="117" viewBox="0 0 148 117" fill="none" xmlns="http://www.w3.org/2000/svg">
<path d="M1.55927 44.0646C17.2558 34.9235 37.1799 48.7393 42.8759 64.3809C45.78 72.356 41.8531 71.2397 36.7516 67.9208C31.1603 64.2832 37.5522 57.7783 40.5966 55.2031C49.6601 47.5367 86.0446 67.354 78.4547 80.5001C73.3646 89.3164 63.721 84.8168 69.2736 75.1994C74.4293 66.2695 87.2814 68.9247 94.7586 65.0499C104.601 59.9495 139.908 71.6699 139.076 84.5437" stroke="#191E25" stroke-width="3" stroke-linecap="round"/>
<path d="M113.23 86.932C120.737 80.9764 129.978 85.029 137.842 85.0251C141.983 85.023 135.936 64.2039 134.561 62.1004" stroke="#191E25" stroke-width="3" stroke-linecap="round"/>
</svg>
