<svg width="75" height="123" viewBox="0 0 75 123" fill="none" xmlns="http://www.w3.org/2000/svg">
<path d="M65.276 118.935C69.6689 112.704 70.4052 108.197 67.7448 103.82C65.1558 99.562 56.108 103.055 53.6166 98.7399C51.1252 94.4246 58.6743 88.3356 56.2808 83.9643C53.8212 79.4722 44.3463 83.077 41.9572 78.5453C39.6749 74.216 47.1975 68.2315 44.7517 63.9952C42.3059 59.759 32.8624 63.5654 30.7538 59.1403C28.8196 55.0815 35.5758 49.9189 34.1345 45.6057C32.2953 40.1018 21.5076 43.8581 18.9641 38.72C16.6278 34.0007 23.7145 27.9086 21.2375 23.2675C18.651 18.4213 9.1077 21.719 6.39278 16.9459C3.70091 12.2133 8.40564 1.04204 8.40564 1.04204" stroke="#191E25" stroke-width="4"/>
<path d="M73.4249 110.591C61.1842 123.718 65.1393 120.105 64.3047 121L64.3048 107.466" stroke="#191E25" stroke-width="3" stroke-linecap="round" stroke-linejoin="round"/>
</svg>
